HIERARCHY
ROOT pelvis
{
	OFFSET 0 0 1.1
	CHANNELS 6 Xposition Yposition Zposition Zrotation Xrotation Yrotation
	JOINT left_hip_yaw_joint
	{
		OFFSET 0.0 0.0875 -0.1742
		CHANNELS 3 Zrotation Xrotation Yrotation
		JOINT left_hip_roll_joint
		{
			OFFSET 0.039468 0.0 0.0
			CHANNELS 3 Zrotation Xrotation Yrotation
			JOINT left_hip_pitch_joint
			{
				OFFSET 0.0 0.11536 0.0
				CHANNELS 3 Zrotation Xrotation Yrotation
				JOINT left_knee_joint
				{
					OFFSET 0.0 0.0 -0.4
					CHANNELS 3 Zrotation Xrotation Yrotation
					JOINT left_ankle_joint
					{
						OFFSET 0.0 0.0 -0.4
						CHANNELS 3 Zrotation Xrotation Yrotation
						End Site
						{
							OFFSET 0.0 0.0 -0.1
						}
					}
				}
			}
		}
	}
	JOINT right_hip_yaw_joint
	{
		OFFSET 0.0 -0.0875 -0.1742
		CHANNELS 3 Zrotation Xrotation Yrotation
		JOINT right_hip_roll_joint
		{
			OFFSET 0.039468 0.0 0.0
			CHANNELS 3 Zrotation Xrotation Yrotation
			JOINT right_hip_pitch_joint
			{
				OFFSET 0.0 -0.11536 0.0
				CHANNELS 3 Zrotation Xrotation Yrotation
				JOINT right_knee_joint
				{
					OFFSET 0.0 0.0 -0.4
					CHANNELS 3 Zrotation Xrotation Yrotation
					JOINT right_ankle_joint
					{
						OFFSET 0.0 0.0 -0.4
						CHANNELS 3 Zrotation Xrotation Yrotation
						End Site
						{
							OFFSET 0.0 0.0 -0.1
						}
					}
				}
			}
		}
	}
	JOINT torso_joint
	{
		OFFSET 0.0 0.0 0.0
		CHANNELS 3 Zrotation Xrotation Yrotation
		JOINT left_shoulder_pitch_joint
		{
			OFFSET 0.0055 0.15535 0.42999
			CHANNELS 3 Zrotation Xrotation Yrotation
			JOINT left_shoulder_roll_joint
			{
				OFFSET -0.0055 0.0565 -0.0165
				CHANNELS 3 Zrotation Xrotation Yrotation
				JOINT left_shoulder_yaw_joint
				{
					OFFSET 0.0 0.0 -0.1343
					CHANNELS 3 Zrotation Xrotation Yrotation
					JOINT left_elbow_joint
					{
						OFFSET 0.0185 0.0 -0.198
						CHANNELS 3 Zrotation Xrotation Yrotation
						JOINT left_hand_joint
						{
							OFFSET 0.2605 0.0 -0.0185
							CHANNELS 3 Zrotation Xrotation Yrotation
							JOINT L_thumb_proximal_yaw_joint
							{
								OFFSET 0.0721 -0.01696 0.02045
								CHANNELS 3 Zrotation Xrotation Yrotation
								JOINT L_thumb_proximal_pitch_joint
								{
									OFFSET 0.0099867 0.0098242 -0.0089
									CHANNELS 3 Zrotation Xrotation Yrotation
									JOINT L_thumb_intermediate_joint
									{
										OFFSET 0.04407 -0.034553 -0.0008
										CHANNELS 3 Zrotation Xrotation Yrotation
										JOINT L_thumb_distal_joint
										{
											OFFSET 0.020248 -0.010156 -0.0012
											CHANNELS 3 Zrotation Xrotation Yrotation
											End Site
											{
												OFFSET 0.005062 -0.002539 -0.0003
											}
										}
									}
								}
							}
							JOINT L_index_proximal_joint
							{
								OFFSET 0.13953 0.00028533 0.032268
								CHANNELS 3 Zrotation Xrotation Yrotation
								JOINT L_index_intermediate_joint
								{
									OFFSET -0.0024229 -0.032041 -0.001
									CHANNELS 3 Zrotation Xrotation Yrotation
									End Site
									{
										OFFSET -0.000605725 -0.00801025 -0.00025
									}
								}
							}
							JOINT L_middle_proximal_joint
							{
								OFFSET 0.1401 0.00028533 0.01295
								CHANNELS 3 Zrotation Xrotation Yrotation
								JOINT L_middle_intermediate_joint
								{
									OFFSET -0.0024229 -0.032041 -0.001
									CHANNELS 3 Zrotation Xrotation Yrotation
									End Site
									{
										OFFSET -0.000605725 -0.00801025 -0.00025
									}
								}
							}
							JOINT L_ring_proximal_joint
							{
								OFFSET 0.13991 0.00028533 -0.0062872
								CHANNELS 3 Zrotation Xrotation Yrotation
								JOINT L_ring_intermediate_joint
								{
									OFFSET -0.0024229 -0.032041 -0.001
									CHANNELS 3 Zrotation Xrotation Yrotation
									End Site
									{
										OFFSET -0.000605725 -0.00801025 -0.00025
									}
								}
							}
							JOINT L_pinky_proximal_joint
							{
								OFFSET 0.13871 0.00028533 -0.025488
								CHANNELS 3 Zrotation Xrotation Yrotation
								JOINT L_pinky_intermediate_joint
								{
									OFFSET -0.0024229 -0.032041 -0.001
									CHANNELS 3 Zrotation Xrotation Yrotation
									End Site
									{
										OFFSET -0.000605725 -0.00801025 -0.00025
									}
								}
							}
						}
					}
				}
			}
		}
		JOINT right_shoulder_pitch_joint
		{
			OFFSET 0.0055 -0.15535 0.42999
			CHANNELS 3 Zrotation Xrotation Yrotation
			JOINT right_shoulder_roll_joint
			{
				OFFSET -0.0055 -0.0565 -0.0165
				CHANNELS 3 Zrotation Xrotation Yrotation
				JOINT right_shoulder_yaw_joint
				{
					OFFSET 0.0 0.0 -0.1343
					CHANNELS 3 Zrotation Xrotation Yrotation
					JOINT right_elbow_joint
					{
						OFFSET 0.0185 0.0 -0.198
						CHANNELS 3 Zrotation Xrotation Yrotation
						JOINT right_hand_joint
						{
							OFFSET 0.2605 0.0 -0.0185
							CHANNELS 3 Zrotation Xrotation Yrotation
							JOINT R_thumb_proximal_yaw_joint
							{
								OFFSET 0.0721 0.01696 0.02045
								CHANNELS 3 Zrotation Xrotation Yrotation
								JOINT R_thumb_proximal_pitch_joint
								{
									OFFSET -0.0088099 0.010892 -0.00925
									CHANNELS 3 Zrotation Xrotation Yrotation
									JOINT R_thumb_intermediate_joint
									{
										OFFSET 0.04407 0.034553 -0.0008
										CHANNELS 3 Zrotation Xrotation Yrotation
										JOINT R_thumb_distal_joint
										{
											OFFSET 0.020248 0.010156 -0.0012
											CHANNELS 3 Zrotation Xrotation Yrotation
											End Site
											{
												OFFSET 0.005062 0.002539 -0.0003
											}
										}
									}
								}
							}
							JOINT R_index_proximal_joint
							{
								OFFSET 0.13953 -0.00028533 0.032268
								CHANNELS 3 Zrotation Xrotation Yrotation
								JOINT R_index_intermediate_joint
								{
									OFFSET -0.0026138 0.032026 -0.001
									CHANNELS 3 Zrotation Xrotation Yrotation
									End Site
									{
										OFFSET -0.00065345 0.0080065 -0.00025
									}
								}
							}
							JOINT R_middle_proximal_joint
							{
								OFFSET 0.1401 -0.00028533 0.01295
								CHANNELS 3 Zrotation Xrotation Yrotation
								JOINT R_middle_intermediate_joint
								{
									OFFSET -0.0024229 0.032041 -0.001
									CHANNELS 3 Zrotation Xrotation Yrotation
									End Site
									{
										OFFSET -0.000605725 0.00801025 -0.00025
									}
								}
							}
							JOINT R_ring_proximal_joint
							{
								OFFSET 0.13991 -0.00028533 -0.0062872
								CHANNELS 3 Zrotation Xrotation Yrotation
								JOINT R_ring_intermediate_joint
								{
									OFFSET -0.0024229 0.032041 -0.001
									CHANNELS 3 Zrotation Xrotation Yrotation
									End Site
									{
										OFFSET -0.000605725 0.00801025 -0.00025
									}
								}
							}
							JOINT R_pinky_proximal_joint
							{
								OFFSET 0.13871 -0.00028533 -0.025488
								CHANNELS 3 Zrotation Xrotation Yrotation
								JOINT R_pinky_intermediate_joint
								{
									OFFSET -0.0024229 0.032041 -0.001
									CHANNELS 3 Zrotation Xrotation Yrotation
									End Site
									{
										OFFSET -0.000605725 0.00801025 -0.00025
									}
								}
							}
						}
					}
				}
			}
		}
	}
}
MOTION
Frames: 6
Frame Time: 0.016666666666666666
0 1.1 0 0 -90 0 0.0 0 0 0 0.0 0 0 0 0.0 0 0 0.0 0 0 0.0 0.0 0 0 0 0.0 0 0 0 0.0 0 0 0.0 0 0 0.0 0.0 0 0 0 0 0.0 0 0.0 0 0.0 0 0 0 0 0.0 0 0.0 0 0.0 0 0 -0.0 0 0 -0.0 0 0 -0.0 0 0 -0.0 0 0 -0.0 0 0 -0.0 0 0 -0.0 0 0 -0.0 0 0 -0.0 0 0 -0.0 0 0 -0.0 0 0 0 0 0.0 0 0.0 0 0.0 0 0 0 0 0.0 0 0.0 0 -0.0 0 0 0.0 0 0 0.0 0 0 0.0 0 0 0.0 0 0 0.0 0 0 0.0 0 0 0.0 0 0 0.0 0 0 0.0 0 0 0.0 0 0 0.0 0 0
0 1.1 0 0 -90 0 0.0010150561118858889 0 0 0 -0.01633580673876596 0 0 0 0.0011096813725009734 0 0 0.00043555945429130815 0 0 0.0009545339605317514 -0.0010150562161063065 0 0 0 0.01633581007381932 0 0 0 0.0011096813725009734 0 0 0.00043555945429130815 0 0 0.0009545339605317514 -2.346120313295316e-05 0 0 0 0 0.007585838173542036 0 -0.00028140036454199735 0 -0.00014290935548999425 0 0 0 0 0.008845287725379257 0 3.416174627338782e-05 0 6.527171272186397e-06 0 0 -1.7465768909481018e-05 0 0 -2.0976828166228472e-06 0 0 -7.637587711292562e-07 0 0 -3.428087641912461e-07 0 0 -1.13818861050301e-07 0 0 -3.8439095513945406e-07 0 0 -1.5053886164070329e-07 0 0 -3.594898577803228e-07 0 0 -1.5741321086873248e-07 0 0 -3.0308974220722175e-07 0 0 -1.3708708705255258e-07 0 0 0 0 0.007584233179111303 0 0.0002604908566588605 0 0.00010993125352661474 0 0 0 0 0.008834757294386974 0 -2.8299435720489865e-05 0 -0.15555746761907216 0 0 1.699512904501801e-05 0 0 2.0431545720116867e-06 0 0 7.431740682130624e-07 0 0 3.5329075304490544e-07 0 0 1.1718841707063423e-07 0 0 3.9717556384402165e-07 0 0 1.5492449039912793e-07 0 0 3.711094674518537e-07 0 0 1.6119612450473855e-07 0 0 3.117922997417795e-07 0 0 1.3926368060261275e-07 0 0
0 1.1 0 0 -90 0 0.0016473707651813625 0 0 0 -0.0409782508979807 0 0 0 0.0029577166706050316 0 0 0.0011198082620363873 0 0 0.002002323725391586 -0.0016473707651813625 0 0 0 0.04097825756808742 0 0 0 0.002957717295927537 0 0 0.001119808366256805 0 0 0.002002323933832421 0.006509259185852406 0 0 0 0 0.01642406058837271 0 -0.0008483522710235169 0 -0.0005002431008643109 0 0 0 0 0.018887511094841224 0 7.443326471055318e-05 0 1.5019092014816842e-05 0 0 -3.7735210354938347e-05 0 0 -4.573125971427627e-06 0 0 -1.6617075383356132e-06 0 0 -1.1733577344376194e-06 0 0 -3.7835637413940594e-07 0 0 -1.3120349080247468e-06 0 0 -4.802169473276978e-07 0 0 -1.207040775977512e-06 0 0 -4.677519207629752e-07 0 0 -9.837542308664372e-07 0 0 -3.736516212410183e-07 0 0 0 0 0.01267055891417546 0 -0.003880546363227275 0 -0.0023425469013239743 0 0 0 0 0.03019413240156711 0 -5.821097240143554e-05 0 -0.465967839483842 0 0 3.3741832440293835e-05 0 0 3.847359002949836e-06 0 0 1.463550123636002e-06 0 0 1.2396677715673948e-07 0 0 1.0970120516030218e-08 0 0 1.7089628211548266e-07 0 0 6.032205761771483e-08 0 0 2.0392432021310146e-07 0 0 1.1453597436545386e-07 0 0 2.2450309457526783e-07 0 0 1.4316526709691792e-07 0 0
0 1.1 0 0 -90 0 0.0019445547648086594 0 0 0 -0.06963432005474895 0 0 0 0.005182821752174801 0 0 0.0019344345453799706 0 0 0.003047971552229316 -0.0019445547648086594 0 0 0 0.06963432672485567 0 0 0 0.005182821335293132 0 0 0.001934435170702476 0 0 0.0030479717606701514 0.02206667405807524 0 0 0 0 0.025124541130512944 0 -0.0015825699488038955 0 -0.0009807189235670572 0 0 0 0 0.028883152940224973 0 0.0001152131573171216 0 2.4090308513902544e-05 0 0 -5.809178332638061e-05 0 0 -7.0791107974709255e-06 0 0 -2.567000180982305e-06 0 0 -2.2756279840880365e-06 0 0 -7.297966041057571e-07 0 0 -2.5421682416053472e-06 0 0 -9.118424480694884e-07 0 0 -2.326918881978118e-06 0 0 -8.642207399002825e-07 0 0 -1.8751250002128203e-06 0 0 -6.652398923018126e-07 0 0 0 0 0.012557580646465371 0 -0.01311757112409953 0 -0.007545697471270261 0 0 0 0 0.06388586199647885 0 -8.758457214015399e-05 0 -0.9305301540785667 0 0 4.9815978682709537e-05 0 0 5.504383441603701e-06 0 0 2.15158126050746e-06 0 0 -5.086960415423224e-07 0 0 -2.373103742739916e-07 0 0 -4.990184022591072e-07 0 0 -1.9874021954938432e-07 0 0 -3.5888728260231263e-07 0 0 -7.296116230423277e-08 0 0 -1.6714573380446723e-07 0 0 5.324391752554924e-08 0 0
0 1.1 0 0 -90 0 0.002043539148609445 0 0 0 -0.09998627385153913 0 0 0 0.00757246544332151 0 0 0.002807023743503597 0 0 0.004074776536009417 -0.0020435393570502804 0 0 0 0.09998628052164586 0 0 0 0.00757246460955817 0 0 0.002807024368826102 0 0 0.004074776952891087 0.04750914916069441 0 0 0 0 0.033493757492256804 0 -0.002386554806410472 0 -0.0015110503547662983 0 0 0 0 0.03862072835641382 0 0.00015522939435520084 0 3.321796851132794e-05 0 0 -7.800771888607071e-05 0 0 -9.54116916017029e-06 0 0 -3.4538084572825197e-06 0 0 -3.484138634353332e-06 0 0 -1.1161946673945143e-06 0 0 -3.890586049585167e-06 0 0 -1.3840237365796138e-06 0 0 -3.55354047601948e-06 0 0 -1.2946382405090095e-06 0 0 -2.8491258691488945e-06 0 0 -9.781447500901462e-07 0 0 0 0 0.0065186669545065174 0 -0.0273680998961011 0 -0.015380152200304389 0 0 0 0 0.10947139906839563 0 -0.00011640812256998955 0 -1.5485469183430003 0 0 6.535950946723299e-05 0 0 7.087336882461635e-06 0 0 2.816169011866261e-06 0 0 -8.844027591424965e-07 0 0 -3.748772289250988e-07 0 0 -9.070612346352541e-07 0 0 -3.524535038162751e-07 0 0 -7.159469421201681e-07 0 0 -1.9798992668722844e-07 0 0 -4.337782019646759e-07 0 0 -7.881365018455156e-08 0 0
0 1.1 0 0 -90 0 0.0020345015708785772 0 0 0 -0.13078581181990506 0 0 0 0.010011413312735296 0 0 0.0036969837755069525 0 0 0.005077248970456278 -0.0020345017793194126 0 0 0 0.13078582516011852 0 0 0 0.010011413312735296 0 0 0.003696984192388623 0 0 0.005077249387337949 0.08304017402527153 0 0 0 0 0.041563979649940415 0 -0.0032013902601321386 0 -0.0020487503779292805 0 0 0 0 0.04807074213146927 0 0.00019415394857423391 0 4.217779455379293e-05 0 0 -9.737134485657167e-05 0 0 -1.1939503251295578e-05 0 0 -4.31636879494413e-06 0 0 -4.705294966692339e-06 0 0 -1.5072508439270147e-06 0 0 -5.253102315264222e-06 0 0 -1.861129541598146e-06 0 0 -4.792902812554494e-06 0 0 -1.7285953677608978e-06 0 0 -3.832713591613807e-06 0 0 -1.2925591246004895e-06 0 0 0 0 -0.005574197768141303 0 -0.04644443337469707 0 -0.025722015940415597 0 0 0 0 0.16655707391840086 0 -0.00014484432479033683 0 -2.3193241743734614 0 0 8.04127483248035e-05 0 0 8.620109006476807e-06 0 0 3.459753906416654e-06 0 0 -1.2374170583697733e-06 0 0 -5.023547787324375e-07 0 0 -1.2922473793475134e-06 0 0 -4.961500507762473e-07 0 0 -1.0550764151486979e-06 0 0 -3.1612683606892955e-07 0 0 -6.891595976916908e-07 0 0 -1.4679858016037478e-07 0 0
